<svg width="44" height="44" viewBox="0 0 44 44" fill="none" xmlns="http://www.w3.org/2000/svg">
<path d="M15.25 30.64L22 23.89L28.75 30.64L30.64 28.75L23.89 22L30.64 15.25L28.75 13.36L22 20.11L15.25 13.36L13.36 15.25L20.11 22L13.36 28.75L15.25 30.64ZM22 40C19.54 40 17.215 39.5275 15.025 38.5825C12.835 37.6375 10.9225 36.3475 9.2875 34.7125C7.6525 33.0775 6.3625 31.165 5.4175 28.975C4.4725 26.785 4 24.46 4 22C4 19.51 4.4725 17.17 5.4175 14.98C6.3625 12.79 7.6525 10.885 9.2875 9.265C10.9225 7.645 12.835 6.3625 15.025 5.4175C17.215 4.4725 19.54 4 22 4C24.49 4 26.83 4.4725 29.02 5.4175C31.21 6.3625 33.115 7.645 34.735 9.265C36.355 10.885 37.6375 12.79 38.5825 14.98C39.5275 17.17 40 19.51 40 22C40 24.46 39.5275 26.785 38.5825 28.975C37.6375 31.165 36.355 33.0775 34.735 34.7125C33.115 36.3475 31.21 37.6375 29.02 38.5825C26.83 39.5275 24.49 40 22 40ZM22 37.3C26.26 37.3 29.875 35.8075 32.845 32.8225C35.815 29.8375 37.3 26.23 37.3 22C37.3 17.74 35.815 14.125 32.845 11.155C29.875 8.185 26.26 6.7 22 6.7C17.77 6.7 14.1625 8.185 11.1775 11.155C8.1925 14.125 6.7 17.74 6.7 22C6.7 26.23 8.1925 29.8375 11.1775 32.8225C14.1625 35.8075 17.77 37.3 22 37.3Z" fill="white"/>
</svg>
